<?xml version="1.0" encoding="utf-8"?>
<!-- Generator: Adobe Illustrator 23.0.2, SVG Export Plug-In . SVG Version: 6.00 Build 0)  -->
<svg version="1.1" id="Layer_1" xmlns="http://www.w3.org/2000/svg" xmlns:xlink="http://www.w3.org/1999/xlink" x="0px" y="0px"
	 viewBox="0 0 56.69 56.69" style="enable-background:new 0 0 56.69 56.69;" xml:space="preserve">
<style type="text/css">
	.st0{fill:#ffffff;}
</style>
<path class="st0" d="M28.35,40.04c8.3,0.02,16.5,0.05,16.5,0.05l0.22-0.06c0.14,0,0.26,0,0.31,0.01c1.36,0.06,2.49-0.84,2.49-0.84
	c1.2-1.2,1.2-3.14,0-4.34L30.52,17.5c-1.2-1.2-3.14-1.2-4.34,0L8.83,34.85c-1.2,1.2-1.2,3.14,0,4.34c0,0,1.13,0.9,2.49,0.84
	c0.05,0,0.17,0,0.31-0.01l0.22,0.06C11.85,40.09,20.05,40.06,28.35,40.04z"/>
</svg>
